<?xml version="1.0" encoding="UTF-8"?>
<!DOCTYPE svg PUBLIC "-//W3C//DTD SVG 1.1//EN" "http://www.w3.org/Graphics/SVG/1.1/DTD/svg11.dtd">
<!-- Creator: CorelDRAW X8 -->
<svg xmlns="http://www.w3.org/2000/svg" xml:space="preserve" width="64mm" height="64mm" version="1.1" style="shape-rendering:geometricPrecision; text-rendering:geometricPrecision; image-rendering:optimizeQuality; fill-rule:evenodd; clip-rule:evenodd"
viewBox="0 0 6400 6400"
 xmlns:xlink="http://www.w3.org/1999/xlink">
 <defs>
  <style type="text/css">
   <![CDATA[
    .fil2 {fill:#4548EB}
    .fil1 {fill:#F26D73}
    .fil4 {fill:#F26D73}
    .fil0 {fill:white}
    .fil3 {fill:white;fill-rule:nonzero}
   ]]>
  </style>
 </defs>
 <g id="Capa_x0020_1">
  <metadata id="CorelCorpID_0Corel-Layer"/>
  <g id="_1775109675360">
   <rect class="fil0" x="417" y="668" width="4803" height="4851"/>
   <path class="fil1" d="M3285 4842c1,404 118,728 358,1009 35,41 48,62 87,102 416,420 1110,591 1699,341 173,-72 346,-177 462,-294 68,-69 119,-116 182,-195 59,-74 100,-145 146,-232 278,-521 219,-1158 -123,-1636 -848,-1185 -2810,-620 -2811,905z"/>
   <path class="fil2" d="M587 670c-48,0 -102,-2 -149,0 -50,2 -72,13 -124,14 -41,26 -68,26 -115,58 -36,25 -62,41 -89,74 -53,63 -91,139 -105,234l0 270 0 273 0 268 0 274 0 268 0 274 0 268 0 273 0 269 0 273 0 269 0 273 0 268 0 274 0 268c0,186 154,362 315,394 70,25 180,14 266,13l273 0 269 0 273 0 268 0 274 0 268 0 286 1 634 0c-53,-141 -88,-290 -105,-452l-2530 -2c-53,-12 -41,-43 -40,-156l0 -2543 4723 -3 0 41 0 268 -1 384c155,27 307,74 452,143l0 -1947c0,-111 9,-220 -25,-304 -47,-117 -86,-121 -143,-197 -44,-13 -63,-39 -118,-57 -39,-12 -99,-24 -150,-25l-273 0 -229 0 -14 462 257 -1 244 0 0 189 0 270 0 286c-4,215 45,186 -176,185l-4389 0c-204,2 -158,16 -158,-199 0,-242 -3,-485 0,-730l456 -1c-1,193 -30,286 85,390 95,85 251,78 340,-6 96,-91 78,-214 78,-384 -1,-147 8,-851 -5,-931 -47,-290 -480,-263 -498,10 -10,149 0,309 0,460l-325 0z"/>
   <path class="fil2" d="M2389 234l0 272 0 164 -177 0 -269 0c-51,0 -133,-5 -179,-2 -78,7 -52,34 -53,124l1 339 231 0 270 0 176 0c6,47 0,118 0,189 16,91 22,125 77,180 44,44 97,78 180,78 151,0 249,-118 258,-256l0 -816 0 -270c-12,-72 -34,-133 -80,-177 -95,-91 -258,-98 -359,10 -75,79 -50,119 -76,165z"/>
   <path class="fil2" d="M3837 670l-269 0 -272 0 -94 0 0 108 -1 353 678 0c0,227 -19,355 152,431 170,75 339,-56 351,-201l0 -1151c-23,-193 -255,-290 -417,-158 -125,102 -86,402 -86,618l-42 0z"/>
   <path class="fil3" d="M4609 5575c-107,0 -207,-25 -299,-74 -92,-50 -165,-121 -221,-214 -55,-94 -83,-207 -83,-338 0,-118 20,-226 59,-325 39,-98 94,-184 165,-257 71,-73 153,-129 246,-170 94,-41 194,-61 302,-61 116,0 215,22 298,65 83,43 145,110 186,201 41,91 55,208 43,352 -9,165 -43,309 -101,433 -59,123 -138,219 -238,286 -100,68 -219,102 -357,102zm125 -335c79,0 150,-20 211,-59 62,-39 110,-92 146,-161 35,-68 53,-148 53,-240 0,-95 -28,-170 -85,-226 -56,-55 -134,-83 -235,-83 -78,0 -148,20 -210,58 -62,39 -111,93 -147,161 -35,69 -53,149 -53,241 0,95 28,170 84,226 57,55 135,83 236,83zm277 314l55 -278 91 -415 54 -416 57 -288 406 0 -278 1397 -385 0z"/>
   <rect class="fil4" x="1163" y="3013" width="797" height="507" rx="74" ry="125"/>
   <rect class="fil2" x="2423" y="3013" width="797" height="507" rx="74" ry="125"/>
   <path class="fil2" d="M3809 3013l547 0c44,0 83,23 105,58 -280,59 -546,180 -773,356 -3,-10 -4,-21 -4,-32l0 -257c0,-69 56,-125 125,-125z"/>
   <rect class="fil2" x="1163" y="3917" width="797" height="507" rx="74" ry="125"/>
   <path class="fil2" d="M2548 3917l547 0c54,0 99,34 117,81 -67,130 -119,272 -153,425l-511 0c-69,0 -125,-56 -125,-124l0 -258c0,-68 56,-124 125,-124z"/>
  </g>
 </g>
</svg>
