<?xml version="1.0" encoding="UTF-8"?>
<!DOCTYPE svg PUBLIC "-//W3C//DTD SVG 1.1//EN" "http://www.w3.org/Graphics/SVG/1.1/DTD/svg11.dtd">
<!-- Creator: CorelDRAW X8 -->
<svg xmlns="http://www.w3.org/2000/svg" xml:space="preserve" width="130mm" height="120mm" version="1.1" style="shape-rendering:geometricPrecision; text-rendering:geometricPrecision; image-rendering:optimizeQuality; fill-rule:evenodd; clip-rule:evenodd"
viewBox="0 0 13000 12000"
 xmlns:xlink="http://www.w3.org/1999/xlink">
 <defs>
  <style type="text/css">
   <![CDATA[
    .str0 {stroke:#4548EB;stroke-width:7.62}
    .fil8 {fill:#0A0161}
    .fil3 {fill:#110876}
    .fil10 {fill:#1B0F91}
    .fil12 {fill:#333333}
    .fil1 {fill:#4548EB}
    .fil6 {fill:#484BF2}
    .fil0 {fill:#92B3F9}
    .fil5 {fill:#DEEAFD}
    .fil4 {fill:#E5534B}
    .fil2 {fill:#F26D73}
    .fil7 {fill:#FDB5B5}
    .fil9 {fill:#FEA29D}
    .fil11 {fill:white}
   ]]>
  </style>
 </defs>
 <g id="Capa_x0020_1">
  <metadata id="CorelCorpID_0Corel-Layer"/>
  <g id="_2694010814256">
   <path class="fil0" d="M1786 4419c11,55 31,126 14,194 -19,77 -68,82 -88,127 61,113 122,289 16,417 17,147 329,364 465,402 143,39 228,31 337,-47 81,-58 146,-139 182,-220 130,-292 -60,-524 -9,-681 -35,16 -16,17 -43,-9 -33,-32 -43,-106 -46,-152 -8,-130 -22,-689 0,-750 41,-116 171,-200 320,-202 129,-2 379,3 502,18 176,22 183,159 186,341 3,169 8,338 11,506 3,178 17,322 -152,362 -61,15 -185,9 -253,9 -45,0 -90,0 -135,1 -133,2 -91,-2 -106,-17l-104 59c1,9 83,297 84,301 132,9 286,4 420,3 139,-1 235,35 260,158 26,126 25,659 21,813 -6,274 -362,211 -612,220 -148,6 -237,-7 -325,-91 -106,-101 -75,-161 -89,-325 -76,30 -111,92 -210,99 -41,56 -80,153 -118,224 -42,79 -75,144 -120,222 -78,136 -167,317 -260,422 -42,23 -120,11 -168,11 -1,200 2,401 5,600 3,223 172,724 239,972 22,79 47,155 70,237 37,126 70,172 20,239 49,103 -32,209 -73,277 -41,69 -100,173 -146,242 81,45 54,90 196,93l845 -13c1138,-19 7831,-105 7865,-132l-271 -1743c-53,-35 -53,-123 -67,-183l-1478 -4c29,21 91,13 134,14 -43,98 -103,120 -237,120 -122,0 -245,-1 -367,-1 -238,1 -478,44 -486,-228 -27,-851 -122,-972 476,-944 -85,-200 -24,-208 181,-207 159,1 318,1 477,1 133,0 572,-25 675,35 56,33 64,84 107,140 23,-21 3,-10 39,-19l343 -6 8 -299c-173,30 -423,23 -609,30 -96,3 -203,15 -274,-35 -67,-46 -95,-114 -96,-216l-118 -81 -125 -99c-18,122 38,301 -33,393 -68,87 -222,67 -357,71 -139,5 -276,7 -416,13 -144,6 -270,21 -301,-115 -24,-103 -37,-757 3,-819 67,-105 203,-77 347,-77 128,0 299,10 422,-4l-67 -265c-96,-12 -100,15 -193,-33 -47,-24 -94,-59 -137,-79 -37,10 -174,10 -231,5 -232,-21 -183,-301 -188,-522 -3,-135 -40,-343 45,-434 89,-96 262,-59 410,-55 486,16 650,-49 656,293 3,159 8,319 11,478 2,172 -72,236 -241,237 59,150 364,473 526,510 38,-80 91,-125 210,-129 108,-4 222,1 331,0 212,0 459,-41 525,130l477 -8 8 -129 6 -122c-50,-32 -109,-28 -130,-90 -18,-53 -6,-140 -4,-196 -147,-70 -109,-268 -112,-448 -3,-163 -48,-388 102,-437 89,-29 435,-4 512,31 151,66 179,161 181,357l-11 0c29,46 54,88 60,162 177,-17 158,140 -2,303 41,70 32,83 -47,121 -51,25 -106,36 -171,34 8,100 27,409 82,468 101,-11 504,103 579,148 72,43 135,111 173,194 28,61 74,216 103,258 -17,-387 -57,-775 -73,-1165 -23,-593 -41,-1202 -24,-1795 3,-115 34,-519 17,-599 -39,-185 -247,-165 -441,-172 -197,-6 -402,-7 -600,-21l-10 183c96,37 138,198 102,308 -31,95 -122,180 -250,184 -313,10 -365,-406 -180,-486l13 -201 -1934 -61 -7 229c239,212 65,494 -156,497 -287,5 -371,-369 -179,-481l15 -255 -1930 -60 -14 241c81,41 128,202 73,321 -42,90 -142,170 -275,159 -282,-23 -331,-398 -124,-502l16 -230 -1936 -62 -8 215c179,105 98,500 -212,473 -292,-25 -307,-431 -117,-500l-6 94 22 -295c-120,11 -991,-27 -1185,-34 -197,-7 -394,-12 -591,-19 -140,-4 -351,-17 -371,231 -31,375 -29,804 -40,1184 -5,175 -9,1084 -36,1170z"/>
   <path class="fil1" d="M1786 9566l-342 585c195,95 186,100 451,94l1639 -35c730,-16 1458,-28 2190,-46 1455,-36 2926,-80 4382,-93l784 -14c10,-56 -63,-541 -94,-577 -83,-28 -2007,20 -2263,26 -752,17 -1507,24 -2259,35 -754,11 -1509,24 -2263,34l-1701 27c-172,3 -388,30 -524,-36z"/>
   <path class="fil2" d="M9385 5241c-50,93 -196,341 -161,482l118 81c158,50 197,103 446,133 236,28 491,-31 538,-10 10,33 10,65 -5,98l-8 299c10,177 14,329 34,500 19,168 55,319 74,476l350 1c12,-21 4,-8 17,-25l64 -60c116,-107 224,-105 310,28 90,-21 190,-76 240,-127 10,-19 57,-501 94,-590 2,-4 4,-8 5,-11 2,-3 4,-8 6,-11 15,-98 73,-334 114,-405 80,36 180,372 127,571 -13,52 -62,147 -65,180 45,80 119,191 148,288l34 1c91,-41 214,-168 264,-238 73,-100 123,-209 152,-364 17,-120 21,-237 6,-356 -14,-106 -52,-217 -60,-314 -29,-42 -75,-197 -103,-258 -38,-83 -101,-151 -173,-194 -75,-45 -478,-159 -579,-148l-8 19c-1,4 -5,16 -7,20 -34,87 -163,91 -249,81 -231,-25 -197,-129 -210,-174l-477 8c-178,38 -319,98 -513,109 -191,11 -373,-20 -523,-90z"/>
   <path class="fil1" d="M899 2121l-28 311 -203 1920c32,10 48,-3 87,-14 10,-85 18,-147 46,-224 25,-72 64,-122 79,-191 45,-205 161,-158 351,-199l0 -1 48 -8 0 4c201,3 286,78 288,281 21,23 44,72 72,99l34 -1179c5,-197 11,-396 19,-594 6,-141 -9,-458 53,-559 98,-162 279,-121 492,-115 531,14 1287,25 1777,59 2,-121 4,-381 -23,-475l-518 -16c-78,3 -201,14 -261,-7l-98 -5c-260,3 -532,-15 -792,-22 -252,-7 -512,-49 -756,11 -190,47 -386,134 -492,303 -192,302 -112,516 -175,621z"/>
   <path class="fil3" d="M10516 7606l271 1743c18,35 19,89 9,131 31,36 104,521 94,577 53,55 96,655 136,785l42 15c92,14 119,16 213,4l43 -15 -28 -800c42,0 109,6 136,-11l-136 -8 -26 -534 34 -31 -42 -6 -4 -112 -88 -917c33,33 461,800 495,910l62 104 -62 27 71 10 141 268c28,67 96,227 143,284 67,95 288,599 325,730 99,12 180,-46 254,-73l23 -20c-39,-122 -87,-256 -129,-373 -27,-80 -130,-323 -118,-383 -16,-14 -160,-422 -159,-446 95,0 391,25 457,-25l-482 6 -33 -108c-37,-54 -137,-368 -171,-459 -59,-156 -112,-302 -171,-453 -108,-277 -232,-631 -369,-880 -205,75 -692,82 -931,60z"/>
   <path class="fil4" d="M820 6796l18 8c-317,237 -326,616 -226,1093l197 880c38,174 19,182 105,247l467 1c36,-20 85,-18 135,-24l128 -6c2,1 6,3 9,4 35,-40 156,-45 217,-60 62,-15 180,-59 230,-57 50,-67 17,-113 -20,-239 -23,-82 -48,-158 -70,-237 -67,-248 -236,-749 -239,-972 -3,-199 -6,-400 -5,-600 48,0 126,12 168,-11l-301 4c-38,69 -373,12 -438,-5 -172,-45 -183,-107 -375,-26z"/>
   <path class="fil1" d="M11110 1938c335,5 666,23 1000,30 168,4 284,52 291,217 6,144 -16,340 -21,489 -20,678 -7,1364 25,2032 31,642 85,1277 142,1909 48,535 117,1079 186,1613l43 234c-23,-305 -14,-656 -21,-967 -22,-954 -32,-1921 -60,-2872 -20,-639 -28,-1281 -42,-1922 -7,-305 26,-625 -107,-865 -103,-187 -314,-352 -611,-365l-838 -24 13 491z"/>
   <path class="fil1" d="M11106 2116c198,14 403,15 600,21 194,7 402,-13 441,172 17,80 -14,484 -17,599 -17,593 1,1202 24,1795 16,390 56,778 73,1165 8,97 46,208 60,314 15,119 11,236 -6,356 25,61 76,676 90,803 57,518 132,1066 210,1579 62,404 -42,417 -423,418l33 108 482 -6 84 -21c51,-49 101,-87 115,-174 11,-69 -18,-197 -28,-268 -26,-170 -58,-342 -68,-515l-43 -234c-69,-534 -138,-1078 -186,-1613 -57,-632 -111,-1267 -142,-1909 -32,-668 -45,-1354 -25,-2032 5,-149 27,-345 21,-489 -7,-165 -123,-213 -291,-217 -334,-7 -665,-25 -1000,-30l-4 178z"/>
   <path class="fil3" d="M8491 6380c63,180 143,359 216,543 37,93 70,179 107,271 41,103 54,200 157,225l1478 4c143,5 294,1 438,2 73,0 147,0 220,0 74,1 140,14 143,-69l-17 -45c-97,-22 -344,-10 -462,-10l-350 -1 -43 -3 -447 -948c-43,-56 -51,-107 -107,-140 -103,-60 -542,-35 -675,-35 -159,0 -318,0 -477,-1 -205,-1 -266,7 -181,207z"/>
   <path class="fil0" d="M11865 7140c-67,55 -164,91 -255,124 -87,31 -75,5 -104,83 -21,55 -39,73 -75,115l16 84c137,249 261,603 369,880 59,151 112,297 171,453 34,91 134,405 171,459 381,-1 485,-14 423,-418 -78,-513 -153,-1061 -210,-1579 -14,-127 -65,-742 -90,-803 -29,155 -79,264 -152,364 -50,70 -173,197 -264,238z"/>
   <path class="fil2" d="M1118 5030c-87,30 -164,83 -228,127l-273 266c-31,33 -46,62 -74,98 -17,21 -24,24 -41,45 -67,86 -70,125 -109,136 11,48 -11,60 -38,107 -23,39 -42,73 -60,111 -26,56 -82,172 -87,236l-3 42c171,-34 146,-79 345,-32 30,-21 124,-166 157,-212 47,-64 119,-174 185,-209 40,210 113,570 91,790 50,-6 102,-24 153,-43 23,-9 53,-23 71,-29 14,-5 52,-6 56,-7 15,-115 0,-257 140,-245 6,-52 101,-390 124,-428l269 -32c27,-39 38,-30 108,-35 38,-44 18,-85 247,-93 28,54 -10,15 12,63 26,-1 47,-5 70,1 61,17 -32,30 205,28 -8,-51 -32,-91 -54,-125 -66,6 -148,11 -191,-31 -136,-38 -448,-255 -465,-402 -54,-24 -56,-83 -101,-123 -46,-42 -109,-28 -162,-59l4 -122c-2,3 -3,7 -4,9l-14 150c-75,72 -208,102 -332,60l-1 -42z"/>
   <path class="fil5" d="M4145 7905c-204,30 -188,204 -184,410 13,678 -65,828 368,809 690,-30 764,56 755,-418 -14,-688 63,-814 -364,-808 -151,2 -443,-12 -575,7z"/>
   <path class="fil4" d="M668 4352c-89,91 -672,120 -533,693 31,126 71,168 154,226l29 22c-53,56 -117,111 -82,240 23,82 84,155 157,169 39,-11 42,-50 109,-136 17,-21 24,-24 41,-45 28,-36 43,-65 74,-98l273 -266c64,-44 141,-97 228,-127 11,-146 116,-388 114,-482 -151,-4 -286,-69 -178,-204 56,-7 79,10 123,23 8,-64 15,-176 46,-223 23,-20 213,-35 344,-144 -2,-203 -87,-278 -288,-281l0 -4 -48 8 0 1c-40,9 -76,13 -110,17l0 0c-125,16 -206,20 -241,182 -15,69 -54,119 -79,191 -28,77 -36,139 -46,224 -39,11 -55,24 -87,14z"/>
   <path class="fil5" d="M4525 4726c555,-5 473,4 458,-779 -9,-454 -53,-381 -728,-402 -189,-6 -358,-20 -387,160 -18,108 4,420 7,548 5,195 -31,378 113,451 95,48 407,23 537,22z"/>
   <path class="fil1" d="M260 8349c-26,253 -107,760 -39,977 76,241 302,459 592,484l141 3c-19,-131 -63,-250 -81,-380 -27,-184 7,-253 41,-409 -86,-65 -67,-73 -105,-247l-197 -880c-100,-477 -91,-856 226,-1093l-18 -8c-78,11 -140,25 -223,20 -76,-5 -126,-33 -180,-38l-157 1571z"/>
   <path class="fil5" d="M2963 7922c-163,31 -271,124 -268,307 2,192 8,384 12,576 8,464 336,371 766,355 212,-8 260,-93 255,-306 -2,-117 4,-739 -34,-821 -27,-58 -88,-113 -173,-121 -86,-9 -483,-5 -558,10z"/>
   <path class="fil5" d="M6115 4717c226,0 240,-121 236,-329 -4,-184 -6,-368 -12,-551 -7,-218 -143,-213 -343,-223 -180,-9 -361,-20 -542,-24 -228,-6 -232,125 -228,333 4,183 9,367 11,551 4,226 100,247 315,247 188,0 376,-4 563,-4z"/>
   <path class="fil5" d="M8342 7863c-402,0 -307,196 -299,782 5,412 207,308 786,288 420,-14 330,-154 319,-777 -7,-389 -197,-293 -806,-293z"/>
   <path class="fil2" d="M7143 4720c660,-3 566,54 558,-748 -2,-170 -27,-287 -192,-301 -161,-14 -337,-11 -501,-17 -479,-18 -428,13 -412,588 4,160 -30,352 73,437 89,74 338,42 474,41z"/>
   <path class="fil5" d="M6642 6061c37,38 59,67 104,90 169,-7 337,-10 507,-16 539,-18 493,38 481,-548 -10,-549 49,-499 -542,-499 -108,0 -431,-21 -501,22 -116,72 -75,286 -72,452 2,125 -5,396 23,499z"/>
   <path class="fil5" d="M9536 7864c-178,63 -147,197 -143,402 2,105 -4,439 27,512 65,148 255,122 427,113 582,-29 673,57 665,-417 -9,-610 42,-634 -457,-628 -119,1 -430,-13 -519,18z"/>
   <path class="fil2" d="M2703 4611l97 -145c53,68 10,94 15,162 152,-26 169,-246 229,-292 60,30 74,143 56,217 -20,88 -70,115 -113,165 15,15 -27,19 106,17 45,-1 90,-1 135,-1 68,0 192,6 253,-9 169,-40 155,-184 152,-362 -3,-168 -8,-337 -11,-506 -3,-182 -10,-319 -186,-341 -123,-15 -373,-20 -502,-18 -149,2 -279,86 -320,202 -22,61 -8,620 0,750 3,46 13,120 46,152 27,26 8,25 43,9z"/>
   <path class="fil5" d="M9099 5624c-80,-88 -129,-144 -193,-246 -29,-46 -51,-89 -77,-144 -23,-48 -43,-117 -65,-148 -123,14 -294,4 -422,4 -144,0 -280,-28 -347,77 -40,62 -27,716 -3,819 31,136 157,121 301,115 140,-6 277,-8 416,-13 135,-4 289,16 357,-71 71,-92 15,-271 33,-393z"/>
   <path class="fil5" d="M9468 3748c-158,50 -167,174 -163,358 11,466 -36,588 444,592 361,3 685,64 676,-371 -3,-144 17,-359 -56,-461 -91,-125 -210,-108 -400,-116 -117,-4 -408,-31 -501,-2z"/>
   <path class="fil6" d="M1881 9401l-95 165c136,66 352,39 524,36l1701 -27c754,-10 1509,-23 2263,-34 752,-11 1507,-18 2259,-35 256,-6 2180,-54 2263,-26 10,-42 9,-96 -9,-131 -34,27 -6727,113 -7865,132l-845 13c-142,-3 -115,-48 -196,-93z"/>
   <path class="fil5" d="M2642 5856c14,164 -17,224 89,325 88,84 177,97 325,91 250,-9 606,54 612,-220 4,-154 5,-687 -21,-813 -25,-123 -121,-159 -260,-158 -134,1 -288,6 -420,-3 9,211 14,312 -71,483 -77,155 -145,191 -254,295z"/>
   <path class="fil5" d="M3290 6548c-144,5 -346,-6 -460,48 -137,64 -168,156 -163,349 11,398 -36,607 414,609 577,2 624,60 611,-401 -15,-575 58,-619 -402,-605z"/>
   <path class="fil7" d="M914 9024c-34,156 -68,225 -41,409 18,130 62,249 81,380l-141 -3c44,18 91,11 147,15 19,90 37,175 57,263 26,118 53,153 6,270 -54,132 -122,382 -241,402 40,81 35,296 37,406 5,172 -34,270 163,281 -49,-233 -25,-595 156,-772 21,65 31,186 -33,237l-32 22 40 -5c28,71 257,376 328,470 68,91 61,70 195,69l-61 -34c-48,-35 -90,-111 -114,-165 -113,-250 -159,-842 -89,-1012 -27,-40 3,-935 9,-1049l0 -183 -467 -1z"/>
   <path class="fil1" d="M8846 1544l6 325 1937 61c3,-91 2,-180 -1,-271 -2,-43 -4,-85 -8,-128 -3,-36 -12,-84 -18,-94l-513 -17 -258 -5 -1152 -38 7 167z"/>
   <path class="fil5" d="M8367 4709c-86,-90 -60,-123 -69,-266 -43,-16 -85,-29 -128,-42 -64,-20 -91,-25 -89,-100 106,9 563,137 640,222 37,41 66,140 108,188 169,-1 243,-65 241,-237 -3,-159 -8,-319 -11,-478 -6,-342 -170,-277 -656,-293 -148,-4 -321,-41 -410,55 -85,91 -48,299 -45,434 5,221 -44,501 188,522 57,5 194,5 231,-5z"/>
   <path class="fil1" d="M6593 1794l1937 61c0,-146 10,-348 -20,-485l-517 -15 -354 -12 -1058 -31 12 482z"/>
   <polygon class="fil1" points="4330,1438 4335,1722 6273,1784 6260,1311 6046,1296 5733,1287 5475,1281 5095,1268 4318,1246 "/>
   <path class="fil2" d="M7639 1343l354 12c25,-542 472,-633 517,15 30,137 20,339 20,485l-10 178 -15 255c-8,134 -39,310 161,258 58,-15 102,-55 127,-93 46,-67 22,-114 47,-181l7 -229 -1 -499 -7 -167c-49,-119 -17,-894 -534,-856 -358,26 -562,581 -573,822l-93 0z"/>
   <path class="fil2" d="M5475 1281l258 6c25,-544 470,-619 519,14l-206 -5 214 15 13 473 -7 178 -16 230c-9,142 -55,321 133,296 62,-8 117,-51 144,-87 50,-65 37,-100 49,-187l14 -241 3 -179 -12 -482c-55,-154 -21,-894 -540,-853 -348,27 -555,570 -566,822z"/>
   <path class="fil2" d="M9991 1415l258 5c11,-180 85,-423 259,-432 164,-9 269,274 254,449 6,10 15,58 18,94 4,43 6,85 8,128 3,91 4,180 1,271l-8 174 -13 201c-7,143 -67,366 151,316 142,-32 171,-152 177,-322l10 -183 4 -178 -13 -491c-62,-287 -63,-895 -541,-853 -350,31 -555,581 -565,821z"/>
   <path class="fil2" d="M3212 1213c60,21 183,10 261,7 48,-604 502,-545 518,16 27,94 25,354 23,475l-5 176 -22 295c-4,69 -28,147 12,199 35,45 103,57 167,33 165,-63 121,-153 156,-299l8 -215 0 -462 -12 -192c-25,-215 -48,-423 -132,-594 -91,-184 -196,-295 -461,-248 -175,58 -268,165 -349,314 -73,136 -136,318 -164,495z"/>
   <path class="fil5" d="M8971 7419c-103,-25 -116,-122 -157,-225 -37,-92 -70,-178 -107,-271 -73,-184 -153,-363 -216,-543 -598,-28 -503,93 -476,944 8,272 248,229 486,228 122,0 245,1 367,1 134,0 194,-22 237,-120 -43,-1 -105,7 -134,-14z"/>
   <path class="fil8" d="M1796 5751l-269 32c-23,38 -118,376 -124,428 56,4 207,29 245,73 -18,40 -14,36 -60,47 18,22 19,17 23,52l-55 19c23,26 22,12 25,47 -83,51 -54,-43 -138,44 -52,55 -57,49 -146,61 -65,302 -203,284 336,273l301 -4c93,-105 182,-286 260,-422 45,-78 78,-143 120,-222 38,-71 77,-168 118,-224 22,-43 41,-83 62,-124 24,-50 60,-87 5,-109 -78,-10 -160,-14 -241,-3l-33 111c-89,5 -367,31 -436,10l7 -89z"/>
   <path class="fil6" d="M1639 4099c42,106 106,190 147,320 27,-86 31,-995 36,-1170 11,-380 9,-809 40,-1184 20,-248 231,-235 371,-231 197,7 394,12 591,19 194,7 1065,45 1185,34l5 -176c-490,-34 -1246,-45 -1777,-59 -213,-6 -394,-47 -492,115 -62,101 -47,418 -53,559 -8,198 -14,397 -19,594l-34 1179z"/>
   <path class="fil9" d="M208 6156c-31,43 -35,136 -36,189 -2,132 37,225 118,320 41,50 48,46 91,80l36 33c54,5 104,33 180,38 83,5 145,-9 223,-20 192,-81 203,-19 375,26 65,17 400,74 438,5 -539,11 -401,29 -336,-273 89,-12 94,-6 146,-61 84,-87 55,7 138,-44 -3,-35 -2,-21 -25,-47l55 -19c-4,-35 -5,-30 -23,-52 46,-11 42,-7 60,-47 -38,-44 -189,-69 -245,-73 -140,-12 -125,130 -140,245 -4,1 -42,2 -56,7 -18,6 -48,20 -71,29 -51,19 -103,37 -153,43 -118,38 -259,36 -343,-37 -71,-60 -103,-208 -90,-332 -199,-47 -174,-2 -345,32l3 -42z"/>
   <path class="fil7" d="M1118 5030l1 42c124,42 257,12 332,-60l14 -150c1,-2 2,-6 4,-9l-3 -111c145,12 94,25 246,-2 20,-45 69,-50 88,-127 17,-68 -3,-139 -14,-194 -41,-130 -105,-214 -147,-320 -28,-27 -51,-76 -72,-99 -131,109 -321,124 -344,144 -31,47 -38,159 -46,223 -44,-13 -67,-30 -123,-23 -108,135 27,200 178,204 2,94 -103,336 -114,482z"/>
   <path class="fil9" d="M1653 8999c-50,42 -102,95 -148,150 -43,53 -78,121 -126,172l2 -113c-6,114 -36,1009 -9,1049l18 -24 54 -82 342 -585 95 -165c46,-69 105,-173 146,-242 41,-68 122,-174 73,-277 -50,-2 -168,42 -230,57 -61,15 -182,20 -217,60z"/>
   <path class="fil9" d="M8367 4709c43,20 90,55 137,79 93,48 97,21 193,33l67 265c22,31 42,100 65,148 26,55 48,98 77,144 64,102 113,158 193,246l125 99c-35,-141 111,-389 161,-482l-30 -20c-162,-37 -467,-360 -526,-510 -42,-48 -71,-147 -108,-188 -77,-85 -534,-213 -640,-222 -2,75 25,80 89,100 43,13 85,26 128,42 9,143 -17,176 69,266z"/>
   <path class="fil9" d="M2703 4611c-51,157 139,389 9,681 -36,81 -101,162 -182,220 -109,78 -194,86 -337,47 43,42 125,37 191,31 22,34 46,74 54,125l61 7c55,22 19,59 -5,109 -21,41 -40,81 -62,124 99,-7 134,-69 210,-99 109,-104 177,-140 254,-295 85,-171 80,-272 71,-483 -1,-4 -83,-292 -84,-301l104 -59c43,-50 93,-77 113,-165 18,-74 4,-187 -56,-217 -60,46 -77,266 -229,292 -5,-68 38,-94 -15,-162l-97 145z"/>
   <polygon class="fil6" points="4330,1900 6266,1962 6273,1784 4335,1722 4330,1438 "/>
   <polygon class="fil6" points="6590,1973 8520,2033 8530,1855 6593,1794 "/>
   <path class="fil1" d="M11432 10035c116,21 450,-1 588,-5 -47,-57 -115,-217 -143,-284l-141 -268 -71 -10c-79,-28 -265,-5 -361,-6l-34 31 26 534 136 8z"/>
   <polygon class="fil6" points="8847,2043 10781,2104 10789,1930 8852,1869 8846,1544 "/>
   <path class="fil1" d="M10888 4300c96,43 309,98 374,140 24,111 -51,138 -20,195 2,-1 6,-8 6,-6 14,30 21,-133 143,-85 40,139 -86,161 -109,222l8 34c65,2 120,-9 171,-34 79,-38 88,-51 47,-121 160,-163 179,-320 2,-303 -6,-74 -31,-116 -60,-162 -31,-4 -14,-5 -46,-27 -25,-18 -36,-24 -63,-36 -41,-20 -88,-34 -137,-46 -338,-78 -180,-96 -313,-126 -33,-7 -14,-25 -62,4 -31,18 -194,207 59,351z"/>
   <path class="fil7" d="M10778 4677c-2,56 -14,143 4,196 21,62 80,58 130,90l-6 122 14 -139c43,-2 83,1 123,-6 22,-4 78,-24 92,-35l64 -53c23,-14 34,-43 36,-92l47 6c23,-61 149,-83 109,-222 -122,-48 -129,115 -143,85 0,-2 -4,5 -6,6 -31,-57 44,-84 20,-195 -65,-42 -278,-97 -374,-140 -38,116 -92,237 -110,377z"/>
   <path class="fil5" d="M10778 4677c18,-140 72,-261 110,-377 -253,-144 -90,-333 -59,-351 48,-29 29,-11 62,-4 133,30 -25,48 313,126 49,12 96,26 137,46 27,12 38,18 63,36 32,22 15,23 46,27l11 0c-2,-196 -30,-291 -181,-357 -77,-35 -423,-60 -512,-31 -150,49 -105,274 -102,437 3,180 -35,378 112,448z"/>
   <path class="fil1" d="M550 6166c-13,124 19,272 90,332 84,73 225,75 343,37 22,-220 -51,-580 -91,-790 -66,35 -138,145 -185,209 -33,46 -127,191 -157,212z"/>
   <path class="fil7" d="M10771 7301c118,0 365,-12 462,10l17 45 138 -23 20 102c14,30 6,16 23,27 36,-42 54,-60 75,-115 29,-78 17,-52 104,-83 91,-33 188,-69 255,-124l-34 -1c-29,-97 -103,-208 -148,-288l-45 50c-15,20 -21,30 -37,49 -18,22 -62,70 -76,68l-18 -513c-2,3 -4,8 -6,11 -1,3 -3,7 -5,11 -37,89 -84,571 -94,590 -50,51 -150,106 -240,127 -86,-133 -194,-135 -310,-28l-64 60c-13,17 -5,4 -17,25z"/>
   <path class="fil3" d="M12421 10911c-31,137 23,320 64,442 49,145 101,291 303,230 160,-48 86,-231 42,-379 -21,-70 -42,-135 -71,-198 -41,-90 -57,-104 -117,-158 -21,103 -114,114 -163,101 -43,-10 -33,-19 -58,-38z"/>
   <path class="fil10" d="M11293 11004l-15 13c-38,33 -48,44 -108,37 -75,-10 -53,-38 -101,-61 -168,54 -538,182 -547,332 59,34 324,23 414,23 117,0 344,17 423,-27 28,-128 -31,-221 -66,-317z"/>
   <path class="fil9" d="M10906 5085l-8 129c13,45 -21,149 210,174 86,10 215,6 249,-81 2,-4 6,-16 7,-20l8 -19c-55,-59 -74,-368 -82,-468l-8 -34 -47 -6c-2,49 -13,78 -36,92l-64 53c-14,11 -70,31 -92,35 -40,7 -80,4 -123,6l-14 139z"/>
   <path class="fil5" d="M9355 5221l30 20c150,70 332,101 523,90 194,-11 335,-71 513,-109 -66,-171 -313,-130 -525,-130 -109,1 -223,-4 -331,0 -119,4 -172,49 -210,129z"/>
   <path class="fil0" d="M11258 9344c46,11 385,15 407,-7 -34,-110 -462,-877 -495,-910l88 917z"/>
   <path class="fil5" d="M9931 6349l447 948 43 3c-19,-157 -55,-308 -74,-476 -20,-171 -24,-323 -34,-500l-343 6c-36,9 -16,-2 -39,19z"/>
   <path class="fil2" d="M11250 7356c-3,83 -69,70 -143,69 -73,0 -147,0 -220,0 -144,-1 -295,3 -438,-2 14,60 14,148 67,183 239,22 726,15 931,-60l-16 -84c-17,-11 -9,3 -23,-27l-20 -102 -138 23z"/>
   <path class="fil5" d="M7993 1355l517 15c-45,-648 -492,-557 -517,-15z"/>
   <path class="fil5" d="M5733 1287l313 9 206 5c-49,-633 -494,-558 -519,-14z"/>
   <path class="fil5" d="M10249 1420l513 17c15,-175 -90,-458 -254,-449 -174,9 -248,252 -259,432z"/>
   <path class="fil11" d="M7134 2907c-135,58 -103,182 -99,356 4,142 110,245 253,168 82,-44 99,-226 106,-352 7,-137 -120,-233 -260,-172z"/>
   <path class="fil11" d="M3095 2733c-142,48 -113,198 -108,358 5,140 110,247 244,174 95,-51 106,-219 116,-348 12,-145 -115,-230 -252,-184z"/>
   <path class="fil11" d="M5760 2732c-134,57 -98,206 -95,360 4,138 111,241 250,165 85,-47 101,-219 108,-350 8,-149 -133,-229 -263,-175z"/>
   <path class="fil11" d="M10964 3004c-153,51 -116,185 -112,357 2,82 16,126 66,163 48,36 124,44 180,11 93,-53 102,-222 113,-353 10,-131 -112,-222 -247,-178z"/>
   <path class="fil11" d="M8466 2967c-135,57 -101,185 -96,356 5,211 180,211 258,164 77,-47 94,-233 100,-351 8,-141 -135,-224 -262,-169z"/>
   <path class="fil11" d="M4328 2756c-145,39 -117,199 -115,348 2,138 83,256 235,192 104,-44 108,-208 123,-342 15,-151 -103,-237 -243,-198z"/>
   <path class="fil11" d="M9850 2942c-151,52 -113,176 -111,345 3,202 141,237 238,191 100,-48 105,-207 118,-338 15,-153 -109,-244 -245,-198z"/>
   <path class="fil0" d="M11507 6505l18 513c14,2 58,-46 76,-68 16,-19 22,-29 37,-49l45 -50c3,-33 52,-128 65,-180 53,-199 -47,-535 -127,-571 -41,71 -99,307 -114,405z"/>
   <path class="fil1" d="M12673 9440c-66,50 -362,25 -457,25 -1,24 143,432 159,446 37,-5 38,-9 73,-35 128,-94 299,-299 309,-457l-84 21z"/>
   <path class="fil10" d="M1636 11468c-134,1 -127,22 -195,-69 -71,-94 -300,-399 -328,-470l-40 5c-73,91 -14,235 24,331 22,56 31,104 42,166 8,40 10,149 46,174 21,-47 -21,-294 -25,-370 174,105 86,370 342,370 77,0 173,9 216,-26 0,-65 -44,-74 -82,-111z"/>
   <path class="fil12" d="M8505 2288c-192,112 -108,486 179,481 221,-3 395,-285 156,-497 -25,67 -1,114 -47,181 -25,38 -69,78 -127,93 -200,52 -169,-124 -161,-258z"/>
   <path class="fil12 str0" d="M6576 2214c-12,87 1,122 -49,187 -27,36 -82,79 -144,87 -188,25 -142,-154 -133,-296 -207,104 -158,479 124,502 133,11 233,-69 275,-159 55,-119 8,-280 -73,-321z"/>
   <path class="fil3" d="M982 11447c-197,-11 -158,-109 -163,-281 -2,-110 3,-325 -37,-406 -116,22 -101,131 -140,231 -26,68 -115,198 -119,246 48,-12 46,-31 92,-90 30,-38 52,-72 87,-99 29,448 -31,497 178,514 80,7 153,16 201,-21 3,-62 -41,-80 -99,-94z"/>
   <path class="fil12" d="M10768 2305c-185,80 -133,496 180,486 128,-4 219,-89 250,-184 36,-110 -6,-271 -102,-308 -6,170 -35,290 -177,322 -218,50 -158,-173 -151,-316z"/>
   <path class="fil12" d="M4322 2115c-35,146 9,236 -156,299 -64,24 -132,12 -167,-33 -40,-52 -16,-130 -12,-199l6 -94c-190,69 -175,475 117,500 310,27 391,-368 212,-473z"/>
   <path class="fil5" d="M10321 6025c15,-33 15,-65 5,-98 -47,-21 -302,38 -538,10 -249,-30 -288,-83 -446,-133 1,102 29,170 96,216 71,50 178,38 274,35 186,-7 436,0 609,-30z"/>
   <path class="fil4" d="M1469 4853l-4 122c53,31 116,17 162,59 45,40 47,99 101,123 106,-128 45,-304 -16,-417 -152,27 -101,14 -246,2l3 111z"/>
   <path class="fil6" d="M1796 5751l-7 89c69,21 347,-5 436,-10l33 -111c81,-11 163,-7 241,3l-61 -7c-237,2 -144,-11 -205,-28 -23,-6 -44,-2 -70,-1 -22,-48 16,-9 -12,-63 -229,8 -209,49 -247,93 -70,5 -81,-4 -108,35z"/>
   <path class="fil6" d="M11258 9344l4 112 42 6c96,1 282,-22 361,6l62 -27 -62 -104c-22,22 -361,18 -407,7z"/>
   <path class="fil9" d="M12345 10760c54,41 21,-23 56,53 16,35 22,62 20,98 25,19 15,28 58,38 49,13 142,2 163,-101 -15,-18 -9,-10 -19,-37 0,0 -11,-36 -11,-38 -7,-29 -12,-52 -13,-86 -74,27 -155,85 -254,73z"/>
   <path class="fil1" d="M9211 6650c-100,76 18,322 122,260 99,-59 -13,-343 -122,-260z"/>
   <path class="fil1" d="M1381 9025l0 183 -2 113c48,-51 83,-119 126,-172 46,-55 98,-108 148,-150 -3,-1 -7,-3 -9,-4l-128 6c-50,6 -99,4 -135,24z"/>
   <path class="fil9" d="M11069 10993c48,23 26,51 101,61 60,7 70,-4 108,-37l15 -13c-27,-40 -19,-82 -12,-143 -94,12 -121,10 -213,-4 1,36 4,40 8,71 6,57 14,29 -7,65z"/>
   <path class="fil5" d="M4623 5084c-163,5 -391,-7 -520,54 -155,73 -190,177 -184,395 12,450 -41,686 468,688 652,3 705,68 691,-453 -17,-650 65,-700 -455,-684z"/>
   <path class="fil5" d="M4211 6545c-167,24 -155,168 -151,338 10,558 -54,682 303,666 568,-25 630,46 622,-344 -11,-567 51,-670 -300,-666 -124,1 -365,-10 -474,6z"/>
   <path class="fil5" d="M5306 6114c37,38 59,67 104,90 169,-7 336,-10 507,-16 539,-18 493,38 481,-548 -11,-549 49,-499 -542,-499 -108,0 -431,-21 -501,22 -116,71 -75,286 -72,452 2,125 -5,396 23,499z"/>
   <path class="fil5" d="M5286 7470c37,38 59,67 104,90 169,-7 337,-10 507,-16 539,-18 493,38 481,-548 -10,-549 49,-499 -542,-499 -108,0 -431,-21 -501,22 -116,71 -75,286 -72,452 2,125 -5,396 23,499z"/>
   <path class="fil5" d="M6642 7424c37,38 59,66 104,89 169,-6 337,-9 507,-15 539,-19 493,38 481,-548 -10,-550 49,-499 -542,-500 -108,0 -431,-20 -501,23 -116,71 -75,285 -72,452 2,125 -5,395 23,499z"/>
   <path class="fil5" d="M6642 8886c37,38 59,66 104,89 169,-6 337,-9 507,-15 539,-19 493,37 481,-548 -10,-550 49,-499 -542,-500 -108,0 -431,-20 -501,23 -116,71 -75,285 -72,452 2,125 -5,395 23,499z"/>
   <path class="fil5" d="M5286 8932c37,38 59,66 104,89 169,-6 337,-9 507,-15 539,-18 493,38 481,-548 -10,-550 49,-499 -542,-499 -108,-1 -431,-21 -501,22 -116,71 -75,285 -72,452 2,125 -5,395 23,499z"/>
  </g>
 </g>
</svg>
