<?xml version="1.0" encoding="utf-8"?>
<!-- Generator: Adobe Illustrator 24.1.1, SVG Export Plug-In . SVG Version: 6.00 Build 0)  -->
<svg version="1.1" id="Layer_1" xmlns="http://www.w3.org/2000/svg" xmlns:xlink="http://www.w3.org/1999/xlink" x="0px" y="0px"
	 viewBox="0 0 512 512" style="enable-background:new 0 0 512 512;" xml:space="preserve">
<style type="text/css">
	.st0{fill-rule:evenodd;clip-rule:evenodd;}
</style>
<g>
	<path class="st0" d="M170.7,384c0-11.8,9.6-21.3,21.3-21.3h128c11.8,0,21.3,9.6,21.3,21.3s-9.6,21.3-21.3,21.3H192
		C180.2,405.3,170.7,395.8,170.7,384z M85.3,256c0-11.8,9.6-21.3,21.3-21.3h298.7c11.8,0,21.3,9.6,21.3,21.3s-9.6,21.3-21.3,21.3
		H106.7C94.9,277.3,85.3,267.8,85.3,256z M0,128c0-11.8,9.6-21.3,21.3-21.3h469.3c11.8,0,21.3,9.6,21.3,21.3s-9.6,21.3-21.3,21.3
		H21.3C9.6,149.3,0,139.8,0,128z"/>
</g>
</svg>
