<?xml version="1.0" encoding="UTF-8"?>
<!DOCTYPE svg PUBLIC "-//W3C//DTD SVG 1.1//EN" "http://www.w3.org/Graphics/SVG/1.1/DTD/svg11.dtd">
<!-- Creator: CorelDRAW X8 -->
<svg xmlns="http://www.w3.org/2000/svg" xml:space="preserve" width="215.69mm" height="48.217mm" version="1.1" style="shape-rendering:geometricPrecision; text-rendering:geometricPrecision; image-rendering:optimizeQuality; fill-rule:evenodd; clip-rule:evenodd"
viewBox="0 0 21569 4822"
 xmlns:xlink="http://www.w3.org/1999/xlink">
 <defs>
  <style type="text/css">
   <![CDATA[
    .fil3 {fill:#4548EB}
    .fil2 {fill:#F26D73}
    .fil5 {fill:#F26D73}
    .fil0 {fill:#4548EB;fill-rule:nonzero}
    .fil1 {fill:#F26D73;fill-rule:nonzero}
    .fil4 {fill:white;fill-rule:nonzero}
   ]]>
  </style>
 </defs>
 <g id="Capa_x0020_1">
  <metadata id="CorelCorpID_0Corel-Layer"/>
  <path class="fil0" d="M6716 3701c-189,0 -364,-43 -526,-130 -162,-87 -291,-213 -389,-378 -98,-164 -146,-363 -146,-595 0,-207 34,-398 103,-572 68,-173 165,-324 290,-453 125,-128 270,-228 435,-299 165,-72 342,-108 531,-108 204,0 379,38 526,115 146,76 255,194 327,354 72,160 97,367 76,620 -16,290 -75,544 -179,762 -104,218 -243,387 -419,506 -175,119 -385,178 -629,178zm220 -590c140,0 264,-34 373,-103 108,-69 193,-163 256,-284 63,-120 94,-261 94,-423 0,-168 -50,-300 -149,-398 -99,-98 -237,-146 -414,-146 -137,0 -261,34 -371,102 -109,69 -196,164 -258,284 -63,121 -94,262 -94,423 0,168 50,301 149,399 99,97 237,146 414,146zm489 554l97 -490 160 -732 96 -732 100 -508 714 0 -489 2462 -678 0zm1419 0l512 -2549c55,-269 172,-483 350,-643 179,-160 419,-240 721,-240 113,0 218,11 316,34 97,23 181,57 252,103l-280 513c-82,-58 -177,-87 -283,-87 -110,0 -196,29 -257,89 -61,59 -105,153 -132,281l-51 229 -36 288 -394 1982 -718 0zm-9 -1858l110 -549 1706 0 -109 549 -1707 0zm2951 1894c-250,0 -468,-46 -654,-137 -186,-92 -330,-220 -433,-384 -102,-165 -153,-359 -153,-582 0,-274 64,-519 192,-734 128,-215 305,-385 529,-510 224,-125 479,-188 766,-188 253,0 472,46 657,138 184,91 328,218 430,382 102,163 153,357 153,583 0,271 -64,516 -192,732 -128,217 -303,388 -526,513 -223,125 -479,187 -769,187zm46 -585c140,0 264,-35 373,-103 108,-69 193,-164 254,-286 61,-122 91,-264 91,-426 0,-165 -49,-297 -146,-398 -98,-101 -235,-151 -412,-151 -140,0 -265,34 -373,103 -108,69 -194,164 -256,286 -63,122 -94,264 -94,425 0,168 49,302 146,401 98,99 237,149 417,149zm1661 549l489 -2462 678 0 -142 700 -64 -201c110,-199 253,-337 430,-417 177,-79 389,-119 636,-119l-128 659c-31,-3 -59,-5 -85,-7 -26,-1 -53,-2 -80,-2 -210,0 -382,52 -515,156 -132,103 -222,271 -267,503l-238 1190 -714 0zm1954 0l489 -2462 710 0 -490 2462 -709 0zm965 -2805c-125,0 -226,-36 -302,-108 -76,-72 -114,-159 -114,-263 0,-122 43,-223 130,-304 87,-81 201,-121 341,-121 125,0 227,34 304,102 78,69 117,154 117,254 0,132 -43,238 -130,318 -87,81 -202,122 -346,122z"/>
  <path class="fil1" d="M16902 3665l512 -2549c55,-269 172,-483 350,-643 179,-160 419,-240 721,-240 113,0 218,11 316,34 97,23 181,57 251,103l-279 513c-82,-58 -177,-87 -283,-87 -110,0 -196,29 -257,89 -61,59 -105,153 -132,281l-51 229 -36 288 -394 1982 -718 0zm-9 -1858l109 -549 1707 0 -110 549 -1706 0zm1912 2782c-125,0 -249,-20 -373,-60 -123,-39 -222,-91 -295,-155l330 -513c52,46 110,83 176,110 65,28 138,41 217,41 92,0 172,-23 240,-68 69,-46 137,-124 204,-234l197 -311 64 -73 1299 -2123 705 0 -1638 2626c-122,193 -239,344 -350,456 -112,111 -229,189 -353,235 -123,46 -264,69 -423,69zm545 -828l-591 -2558 714 0 449 2059 -572 499z"/>
  <path class="fil2" d="M2463 3559c1,304 89,547 269,758 26,31 36,47 65,77 313,315 834,443 1276,256 130,-55 260,-133 347,-221 51,-52 89,-87 137,-147 44,-55 75,-108 109,-173 209,-392 165,-871 -92,-1229 -636,-890 -2110,-466 -2111,679z"/>
  <path class="fil3" d="M437 427c-36,0 -76,-2 -112,-1 -37,2 -54,10 -93,11 -31,19 -51,20 -86,44 -27,18 -47,30 -67,55 -40,47 -68,105 -79,176l0 202 0 205 0 202 0 205 0 202 0 205 0 202 0 205 0 202 0 205 0 201 0 206 0 201 0 206 0 201c0,139 115,272 236,296 53,19 136,10 200,10l205 0 202 0 205 0 202 0 205 0 202 0 215 0 475 0c-40,-105 -66,-218 -79,-339l-1899 -2c-40,-8 -31,-32 -30,-117l0 -1909 3547 -3 0 31 0 202 -1 288c116,20 230,56 339,107l0 -1462c0,-83 7,-165 -19,-228 -35,-88 -64,-91 -107,-148 -33,-10 -48,-30 -89,-43 -29,-9 -74,-18 -113,-18l-204 0 -173 0 -10 346 193 0 184 -1 0 143 0 202 -1 215c-3,161 34,139 -132,139l-3295 0c-154,1 -119,12 -119,-149 0,-182 -2,-365 0,-549l342 0c0,145 -22,215 64,292 71,64 189,59 255,-4 72,-69 59,-160 59,-289 -1,-110 6,-638 -4,-699 -35,-217 -360,-197 -374,8 -7,112 0,232 0,345l-244 1z"/>
  <path class="fil3" d="M1790 99l0 204 0 124 -133 0 -202 0c-38,0 -100,-5 -134,-2 -59,5 -39,25 -40,93l1 254 173 0 203 0 132 0c5,36 0,89 0,142 12,69 16,94 58,136 33,33 73,58 135,58 114,0 187,-89 194,-192l0 -613 0 -202c-9,-54 -25,-101 -60,-134 -71,-68 -194,-73 -270,8 -56,59 -37,89 -57,124z"/>
  <path class="fil3" d="M2878 427l-202 0 -205 0 -70 -1 0 81 -1 266 509 0c0,170 -14,266 114,323 128,56 255,-42 264,-151l0 -864c-17,-145 -191,-218 -313,-119 -94,77 -65,302 -65,465l-31 0z"/>
  <path class="fil4" d="M3457 4110c-80,0 -155,-19 -224,-56 -69,-37 -124,-91 -166,-161 -41,-70 -62,-155 -62,-253 0,-89 14,-170 44,-244 29,-74 70,-139 124,-193 53,-55 115,-98 185,-128 70,-31 145,-46 226,-46 87,0 162,16 224,49 63,32 109,83 140,151 30,68 41,156 32,264 -7,124 -32,232 -76,325 -44,93 -104,165 -179,215 -74,51 -164,77 -268,77zm94 -252c60,0 113,-15 159,-44 46,-29 82,-69 109,-121 27,-51 40,-111 40,-180 0,-72 -21,-128 -63,-170 -43,-42 -101,-62 -177,-62 -58,0 -111,14 -158,44 -47,29 -83,69 -110,120 -27,52 -40,112 -40,181 0,71 21,128 63,170 43,41 101,62 177,62zm209 236l40 -209 69 -312 41 -312 43 -216 304 0 -209 1049 -288 0z"/>
  <rect class="fil5" x="869" y="2186" width="598" height="380" rx="56" ry="94"/>
  <rect class="fil3" x="1816" y="2186" width="598" height="380" rx="56" ry="94"/>
  <path class="fil3" d="M2856 2186l411 0c33,0 63,17 79,43 -210,45 -410,136 -580,268 -2,-8 -3,-16 -3,-24l0 -194c0,-51 42,-93 93,-93z"/>
  <rect class="fil3" x="869" y="2864" width="598" height="380" rx="56" ry="94"/>
  <path class="fil3" d="M1910 2864l411 0c40,0 74,26 87,62 -50,97 -89,204 -115,319l-383 0c-52,0 -94,-42 -94,-94l0 -193c0,-51 42,-94 94,-94z"/>
 </g>
</svg>
