<?xml version="1.0" encoding="UTF-8"?>
<!DOCTYPE svg PUBLIC "-//W3C//DTD SVG 1.1//EN" "http://www.w3.org/Graphics/SVG/1.1/DTD/svg11.dtd">
<!-- Creator: CorelDRAW X8 -->
<svg xmlns="http://www.w3.org/2000/svg" xml:space="preserve" width="50mm" height="50mm" version="1.1" style="shape-rendering:geometricPrecision; text-rendering:geometricPrecision; image-rendering:optimizeQuality; fill-rule:evenodd; clip-rule:evenodd"
viewBox="0 0 5000 5000"
 xmlns:xlink="http://www.w3.org/1999/xlink">
 <defs>
  <style type="text/css">
   <![CDATA[
    .fil1 {fill:#383838}
    .fil2 {fill:#383838}
    .fil0 {fill:#999999}
    .fil3 {fill:white;fill-rule:nonzero}
   ]]>
  </style>
 </defs>
 <g id="Capa_x0020_1">
  <metadata id="CorelCorpID_0Corel-Layer"/>
  <g id="_2728928511296">
   <path class="fil0" d="M2564 3733c1,304 89,547 269,758 26,30 35,47 65,76 312,316 834,444 1276,257 129,-55 260,-133 346,-221 52,-52 90,-87 137,-147 44,-56 75,-108 110,-174 209,-391 165,-870 -92,-1228 -637,-890 -2110,-466 -2111,679z"/>
   <path class="fil1" d="M537 600c-35,0 -76,-1 -111,0 -38,2 -54,10 -93,10 -31,20 -51,20 -87,44 -27,19 -46,31 -67,55 -39,48 -68,105 -78,177l0 202 0 205 0 202 0 205 0 202 0 205 0 202 0 205 0 201 0 206 0 201 0 206 0 201 0 205 0 202c0,139 115,272 236,295 53,20 135,11 200,11l205 0 202 0 205 0 202 0 205 0 201 0 215 0 476 0c-40,-105 -66,-218 -79,-339l-1899 -2c-40,-8 -31,-32 -31,-117l0 -1909 3547 -3 0 31 0 201 0 288c116,21 230,56 339,108l0 -1462c0,-83 6,-165 -19,-228 -36,-88 -64,-91 -107,-149 -33,-9 -48,-29 -89,-42 -30,-9 -74,-18 -113,-19l-205 0 -172 0 -10 347 193 -1 183 0 0 143 0 202 0 215c-3,161 34,139 -132,139l-3296 0c-153,1 -119,12 -119,-150 1,-181 -1,-364 1,-548l342 0c-1,144 -23,214 64,292 71,64 188,58 255,-5 72,-68 58,-160 58,-288 0,-110 7,-639 -3,-699 -35,-217 -360,-197 -374,7 -8,112 0,233 0,346l-245 0z"/>
   <path class="fil1" d="M1891 273l0 204 0 123 -133 0 -202 0c-38,0 -100,-4 -135,-1 -58,5 -38,25 -39,93l0 254 174 0 203 0 132 0c5,36 0,89 0,142 12,69 16,94 58,136 33,33 73,58 135,58 113,0 187,-89 193,-192l0 -613 0 -203c-9,-54 -25,-100 -59,-133 -72,-68 -194,-73 -270,8 -56,59 -37,89 -57,124z"/>
   <path class="fil2" d="M2979 600l-203 0 -204 0 -71 0 0 81 0 266 509 0c0,170 -14,266 114,323 127,56 255,-42 264,-151l-1 -864c-16,-145 -191,-218 -312,-119 -94,77 -65,302 -65,464l-31 0z"/>
   <path class="fil3" d="M3558 4283c-81,0 -155,-18 -224,-55 -69,-37 -124,-91 -166,-161 -42,-70 -62,-155 -62,-254 0,-88 14,-169 43,-243 30,-75 71,-139 124,-194 54,-54 115,-97 185,-127 71,-31 146,-46 227,-46 87,0 162,16 224,49 62,32 109,83 139,151 31,68 42,156 33,264 -7,124 -32,232 -76,325 -45,93 -104,165 -179,215 -75,51 -164,76 -268,76zm94 -251c59,0 112,-15 159,-44 46,-29 82,-70 109,-121 26,-51 40,-112 40,-180 0,-72 -21,-128 -64,-170 -42,-42 -101,-63 -176,-63 -59,0 -111,15 -158,44 -47,30 -84,70 -110,121 -27,52 -40,112 -40,181 0,71 21,128 63,169 42,42 101,63 177,63zm208 236l41 -209 68 -312 41 -312 43 -216 305 0 -209 1049 -289 0z"/>
   <rect class="fil0" x="970" y="2360" width="598" height="380" rx="56" ry="94"/>
   <rect class="fil2" x="1917" y="2360" width="598" height="380" rx="56" ry="94"/>
   <path class="fil2" d="M2957 2360l411 0c33,0 62,17 79,43 -210,45 -410,135 -580,268 -2,-8 -4,-16 -4,-25l0 -193c0,-51 43,-93 94,-93z"/>
   <rect class="fil2" x="970" y="3038" width="598" height="380" rx="56" ry="94"/>
   <path class="fil2" d="M2010 3038l411 0c40,0 75,26 88,61 -51,98 -90,205 -115,320l-384 0c-51,0 -93,-42 -93,-94l0 -193c0,-52 42,-94 93,-94z"/>
  </g>
 </g>
</svg>
